<svg width="40" height="40" viewBox="0 0 40 40" fill="none" xmlns="http://www.w3.org/2000/svg">
  <!-- Bitcoin B Symbol -->
  <circle cx="20" cy="20" r="18" fill="#003F5C" stroke="#FFB400" stroke-width="2"/>
  <path d="M16 12h8c2.2 0 4 1.8 4 4 0 1.3-.6 2.4-1.5 3.2.9.8 1.5 1.9 1.5 3.2 0 2.2-1.8 4-4 4h-8V12z" fill="#FFB400"/>
  <path d="M20 15v10M22 15v10M18 15v2M18 23v2" stroke="#003F5C" stroke-width="1.5" stroke-linecap="round"/>
  
  <!-- Chart bars -->
  <rect x="28" y="24" width="2" height="6" rx="1" fill="#FFB400"/>
  <rect x="31" y="20" width="2" height="10" rx="1" fill="#FFB400"/>
  <rect x="34" y="26" width="2" height="4" rx="1" fill="#FFB400"/>
</svg>
