<svg xmlns="http://www.w3.org/2000/svg" viewBox="0 0 128 112"><defs><linearGradient id="gold" x1="0" y1="0" x2="0" y2="1"><stop offset="0" stop-color="#FFC933"/><stop offset="1" stop-color="#E6A200"/></linearGradient></defs><path d="M 63.10 16.95 A 39.0 39.0 0 1 0 42.60 90.85" fill="none" stroke="#FFFFFF" stroke-width="11.5" stroke-linecap="round"/><g fill="none" stroke="#FFFFFF" stroke-width="8.6" stroke-linecap="round" stroke-linejoin="round"><line x1="31.0" y1="32.0" x2="31.0" y2="72.0"/><line x1="31.0" y1="32.0" x2="44.0" y2="32.0"/><line x1="31.0" y1="52.0" x2="44.0" y2="52.0"/><line x1="31.0" y1="72.0" x2="44.0" y2="72.0"/><path d="M 44.0 32.0 C 57.0 32.0 57.0 52.0 44.0 52.0"/><path d="M 44.0 52.0 C 60.0 52.0 60.0 72.0 44.0 72.0"/><line x1="31.0" y1="25.0" x2="31.0" y2="32.0"/><line x1="44.0" y1="25.0" x2="44.0" y2="32.0"/><line x1="31.0" y1="72.0" x2="31.0" y2="79.0"/><line x1="44.0" y1="72.0" x2="44.0" y2="79.0"/></g><rect x="64.0" y="66.00" width="11.0" height="26.00" rx="2.6" fill="url(#gold)"/><rect x="79.0" y="50.00" width="11.0" height="42.00" rx="2.6" fill="url(#gold)"/><rect x="94.0" y="32.00" width="11.0" height="60.00" rx="2.6" fill="url(#gold)"/><rect x="109.0" y="12.00" width="11.0" height="80.00" rx="2.6" fill="url(#gold)"/></svg>