<svg xmlns="http://www.w3.org/2000/svg" viewBox="0 0 506.8 112"><defs><linearGradient id="gold" x1="0" y1="0" x2="0" y2="1"><stop offset="0" stop-color="#FFC933"/><stop offset="1" stop-color="#E6A200"/></linearGradient></defs><path d="M 63.10 16.95 A 39.0 39.0 0 1 0 42.60 90.85" fill="none" stroke="#003F5C" stroke-width="11.5" stroke-linecap="round"/><g fill="none" stroke="#003F5C" stroke-width="8.6" stroke-linecap="round" stroke-linejoin="round"><line x1="31.0" y1="32.0" x2="31.0" y2="72.0"/><line x1="31.0" y1="32.0" x2="44.0" y2="32.0"/><line x1="31.0" y1="52.0" x2="44.0" y2="52.0"/><line x1="31.0" y1="72.0" x2="44.0" y2="72.0"/><path d="M 44.0 32.0 C 57.0 32.0 57.0 52.0 44.0 52.0"/><path d="M 44.0 52.0 C 60.0 52.0 60.0 72.0 44.0 72.0"/><line x1="31.0" y1="25.0" x2="31.0" y2="32.0"/><line x1="44.0" y1="25.0" x2="44.0" y2="32.0"/><line x1="31.0" y1="72.0" x2="31.0" y2="79.0"/><line x1="44.0" y1="72.0" x2="44.0" y2="79.0"/></g><rect x="64.0" y="66.00" width="11.0" height="26.00" rx="2.6" fill="url(#gold)"/><rect x="79.0" y="50.00" width="11.0" height="42.00" rx="2.6" fill="url(#gold)"/><rect x="94.0" y="32.00" width="11.0" height="60.00" rx="2.6" fill="url(#gold)"/><rect x="109.0" y="12.00" width="11.0" height="80.00" rx="2.6" fill="url(#gold)"/><g transform="translate(148.0,78.0) scale(0.03863298662704309,-0.03863298662704309)" fill="#003F5C"><path transform="translate(0,0)" d="M161 0V1346H621Q839 1346 966.0 1263.5Q1093 1181 1093 1010Q1093 903 1039.5 828.5Q986 754 897 721Q1037 693 1110.5 607.0Q1184 521 1184 395Q1184 260 1122.5 172.5Q1061 85 946.5 42.5Q832 0 672 0ZM442 233H662Q728 233 782.0 249.5Q836 266 867.5 307.5Q899 349 899 419Q899 509 832.0 547.5Q765 586 662 586H442ZM442 801H617Q698 801 753.0 843.0Q808 885 808 966Q808 1023 783.0 1056.5Q758 1090 715.0 1104.5Q672 1119 617 1119H442Z"/><path transform="translate(1268,0)" d="M142 0V976H407V0ZM275 1104Q202 1104 163.5 1141.0Q125 1178 125 1233Q125 1289 163.5 1325.5Q202 1362 275 1362Q348 1362 386.5 1325.5Q425 1289 425 1233Q425 1178 386.5 1141.0Q348 1104 275 1104Z"/><path transform="translate(1821,0)" d="M559 0Q411 0 329.5 35.5Q248 71 216.0 145.5Q184 220 184 340V772H22V976H184V1206H449V976H662V772H449V356Q449 279 470.5 242.0Q492 205 568 205H662V0Z"/><path transform="translate(2549,0)" d="M406 0 7 1346H298L554 334L823 1346H1105L1376 334L1632 1346H1919L1517 0H1225L961 1005L700 0Z"/><path transform="translate(4404,0)" d="M591 -18Q428 -18 317.0 42.5Q206 103 149.0 217.0Q92 331 92 491Q92 646 147.5 758.0Q203 870 310.5 930.5Q418 991 575 991Q793 991 919.5 863.5Q1046 736 1046 500Q1046 488 1045.0 467.5Q1044 447 1042 436H357Q359 367 382.5 307.0Q406 247 457.0 210.5Q508 174 591 174Q677 174 729.0 211.5Q781 249 782 323H1043Q1038 209 980.5 133.0Q923 57 823.5 19.5Q724 -18 591 -18ZM360 604H783Q780 706 722.5 756.5Q665 807 575 807Q483 807 424.5 755.0Q366 703 360 604Z"/><path transform="translate(5543,0)" d="M408 -17Q325 -17 253.0 15.0Q181 47 136.5 111.5Q92 176 92 273Q92 408 173.0 476.5Q254 545 399.5 569.5Q545 594 738 598V650Q738 745 692.5 780.0Q647 815 575 815Q496 815 445.0 777.5Q394 740 394 656H146Q146 781 200.5 854.0Q255 927 351.5 959.0Q448 991 575 991Q668 991 745.0 975.5Q822 960 878.5 922.0Q935 884 966.0 818.5Q997 753 997 655V0H749L741 127Q679 56 597.0 19.5Q515 -17 408 -17ZM495 165Q570 165 633.5 204.0Q697 243 735 293V451Q525 450 441.0 411.5Q357 373 357 287Q357 225 395.5 195.0Q434 165 495 165Z"/><path transform="translate(6673,0)" d="M508 0Q359 0 278.0 35.5Q197 71 165.0 145.5Q133 220 133 340V1346H397V356Q397 279 418.0 243.0Q439 207 516 207H577V0Z"/><path transform="translate(7269,0)" d="M559 0Q411 0 329.5 35.5Q248 71 216.0 145.5Q184 220 184 340V772H22V976H184V1206H449V976H662V772H449V356Q449 279 470.5 242.0Q492 205 568 205H662V0Z"/><path transform="translate(7997,0)" d="M142 0V1346H402V830Q451 893 531.0 941.5Q611 990 737 990Q889 990 970.5 900.5Q1052 811 1052 635V0H787V602Q787 654 772.5 694.0Q758 734 726.0 756.0Q694 778 641 778Q562 778 505.5 741.0Q449 704 407 651V0Z"/></g></svg>